<?xml version="1.0" encoding="UTF-8"?>
<svg version="1.1" xmlns="http://www.w3.org/2000/svg" width="200" height="171">
<path d="M0 0 C2.12662356 1.43438929 3.69986386 2.88736386 5.49609375 4.68359375 C6.15609375 4.68359375 6.81609375 4.68359375 7.49609375 4.68359375 C8.48933317 3.15488699 9.47560761 1.6209415 10.41625977 0.05932617 C15.26826112 -7.90774509 15.26826112 -7.90774509 19.08984375 -9.1796875 C21.35503659 -9.13309334 23.3155234 -8.91954273 25.49609375 -8.31640625 C25.49609375 -6.00640625 25.49609375 -3.69640625 25.49609375 -1.31640625 C26.05296875 -1.46078125 26.60984375 -1.60515625 27.18359375 -1.75390625 C39.17549925 -4.67085624 50.69518595 -3.31221515 61.3984375 3.17578125 C68.20094721 8.06548097 74.39961546 14.33078024 75.8762207 22.88598633 C76.03036067 25.16571388 76.04286697 27.39950175 75.99609375 29.68359375 C76.01929688 30.81667969 76.01929688 30.81667969 76.04296875 31.97265625 C75.97178712 42.32958319 70.31066268 48.41472023 63.49609375 55.68359375 C67.12609375 56.01359375 70.75609375 56.34359375 74.49609375 56.68359375 C74.49609375 58.66359375 74.49609375 60.64359375 74.49609375 62.68359375 C9.15609375 62.68359375 -56.18390625 62.68359375 -123.50390625 62.68359375 C-123.50390625 60.70359375 -123.50390625 58.72359375 -123.50390625 56.68359375 C-118.88390625 56.35359375 -114.26390625 56.02359375 -109.50390625 55.68359375 C-111.05078125 54.56984375 -112.59765625 53.45609375 -114.19140625 52.30859375 C-120.64494198 47.0633796 -123.9563258 42.34542728 -124.9375 33.9921875 C-125.16812727 26.95456133 -125.25476784 20.25265928 -120.50390625 14.68359375 C-114.86609169 9.43857774 -110.37838038 7.3488716 -102.59375 7.46484375 C-98.08634863 7.93664651 -94.59177983 9.79611794 -91.12890625 12.62109375 C-89.4828458 14.71032432 -88.87650896 16.07537481 -88.50390625 18.68359375 C-92.50390625 18.68359375 -92.50390625 18.68359375 -95.69140625 16.68359375 C-99.89916118 14.14084292 -103.69642303 13.95024885 -108.50390625 14.68359375 C-113.10863229 16.52548416 -115.39349593 19.22828308 -117.50390625 23.68359375 C-118.59296012 31.5049806 -117.4873291 36.96156769 -113.50390625 43.68359375 C-113.50390625 44.34359375 -113.50390625 45.00359375 -113.50390625 45.68359375 C-112.51390625 46.01359375 -111.52390625 46.34359375 -110.50390625 46.68359375 C-110.38015625 45.59046875 -110.25640625 44.49734375 -110.12890625 43.37109375 C-109.50390625 39.68359375 -109.50390625 39.68359375 -107.50390625 36.68359375 C-106.01890625 37.17859375 -106.01890625 37.17859375 -104.50390625 37.68359375 C-104.50390625 38.38484375 -104.50390625 39.08609375 -104.50390625 39.80859375 C-102.59873573 45.285959 -96.75455183 47.87264433 -92.06640625 50.93359375 C-89.50390625 52.68359375 -89.50390625 52.68359375 -88.50390625 54.68359375 C-85.53390625 54.68359375 -82.56390625 54.68359375 -79.50390625 54.68359375 C-80.07169273 53.07385868 -80.65882735 51.47094048 -81.25390625 49.87109375 C-81.57875 48.97777344 -81.90359375 48.08445313 -82.23828125 47.1640625 C-83.31720258 44.56867974 -83.31720258 44.56867974 -85.60546875 43.21875 C-87.50390625 41.68359375 -87.50390625 41.68359375 -88.10546875 39.01171875 C-88.17652591 29.67954563 -88.17652591 29.67954563 -84.75390625 25.68359375 C-83.69522746 24.65752829 -82.61310775 23.6548214 -81.50390625 22.68359375 C-80.72015625 21.87921875 -79.93640625 21.07484375 -79.12890625 20.24609375 C-78.59265625 19.73046875 -78.05640625 19.21484375 -77.50390625 18.68359375 C-78.49390625 18.68359375 -79.48390625 18.68359375 -80.50390625 18.68359375 C-80.50390625 18.02359375 -80.50390625 17.36359375 -80.50390625 16.68359375 C-78.84858002 15.66493146 -77.18130487 14.66548562 -75.50390625 13.68359375 C-75.17390625 13.02359375 -74.84390625 12.36359375 -74.50390625 11.68359375 C-77.80390625 12.01359375 -81.10390625 12.34359375 -84.50390625 12.68359375 C-83.50390625 9.68359375 -83.50390625 9.68359375 -81.00390625 8.12109375 C-78.14210247 6.94571005 -76.10708979 6.41278245 -73.12890625 5.93359375 C-68.39121938 4.99395252 -66.09039811 2.77132548 -62.671875 -0.50390625 C-44.67497556 -15.54996272 -18.33504714 -10.93285016 0 0 Z M-57.50390625 8.68359375 C-58.16390625 9.67359375 -58.82390625 10.66359375 -59.50390625 11.68359375 C-58.72015625 12.59109375 -57.93640625 13.49859375 -57.12890625 14.43359375 C-50.42477014 22.19627766 -50.31371365 32.8593513 -49.50390625 42.68359375 C-41.41411749 41.80656992 -35.91257303 39.71558396 -29.50390625 34.68359375 C-30.16390625 34.35359375 -30.82390625 34.02359375 -31.50390625 33.68359375 C-32.29269405 26.68675382 -31.4582468 22.40342092 -27.23828125 16.7265625 C-24.81385664 13.87076504 -22.18353992 11.29942662 -19.50390625 8.68359375 C-19.50390625 8.02359375 -19.50390625 7.36359375 -19.50390625 6.68359375 C-18.84390625 6.68359375 -18.18390625 6.68359375 -17.50390625 6.68359375 C-17.50390625 12.29359375 -17.50390625 17.90359375 -17.50390625 23.68359375 C-12.23280723 20.24939287 -7.24474592 16.81663346 -2.50390625 12.68359375 C-9.33472497 4.38902816 -20.23101324 0.50342999 -30.671875 -0.53125 C-40.68297054 -0.97421883 -49.85758298 2.23043301 -57.50390625 8.68359375 Z M25.49609375 1.68359375 C25.49609375 2.67359375 25.49609375 3.66359375 25.49609375 4.68359375 C26.81609375 5.01359375 28.13609375 5.34359375 29.49609375 5.68359375 C27.51609375 6.67359375 27.51609375 6.67359375 25.49609375 7.68359375 C25.4417237 10.53802128 25.40224401 13.39139451 25.37109375 16.24609375 C25.35433594 17.04595703 25.33757812 17.84582031 25.3203125 18.66992188 C25.27912212 23.71574294 25.48763798 28.01122808 27.49609375 32.68359375 C32.27324425 35.65295271 38.05718982 35.23075075 43.49609375 34.68359375 C46.61547344 33.31106668 47.98586525 32.70405075 49.49609375 29.68359375 C49.97762387 25.43007765 49.9432613 23.36155745 47.55859375 19.74609375 C43.41937054 16.95845363 40.34602196 17.01141072 35.49609375 17.68359375 C32.08137451 18.56819403 32.08137451 18.56819403 29.49609375 19.68359375 C33.17922971 15.87768659 34.99758851 14.52238176 40.30859375 14.37109375 C44.02310363 14.39793269 45.2967602 14.5615528 48.55859375 16.55859375 C51.76415146 20.07436673 51.82278757 22.61564827 51.79296875 27.22265625 C51.29647983 31.33828811 49.47330742 35.70638008 46.49609375 38.68359375 C40.61540285 39.46854374 36.37473777 38.61032221 31.3203125 35.55859375 C29.23220056 34.39527376 29.23220056 34.39527376 25.49609375 34.68359375 C25.49609375 40.62359375 25.49609375 46.56359375 25.49609375 52.68359375 C33.13855734 55.5495176 37.55857249 56.83923142 45.49609375 56.68359375 C43.92358438 53.53857501 41.22901935 53.33620201 37.99609375 52.18359375 C31.60720486 49.90581597 31.60720486 49.90581597 30.49609375 47.68359375 C35.62371325 47.30532674 39.90307302 47.00860854 44.43359375 49.68359375 C49.16974339 52.41487023 54.15371886 52.4570689 59.49609375 51.68359375 C60.15609375 51.02359375 60.81609375 50.36359375 61.49609375 49.68359375 C60.83609375 49.68359375 60.17609375 49.68359375 59.49609375 49.68359375 C65.08443174 40.13925017 65.08443174 40.13925017 68.30859375 35.74609375 C71.98725715 30.59596499 72.16187256 25.8350149 71.49609375 19.68359375 C69.63558587 14.24027927 65.61892387 10.52532182 61.49609375 6.68359375 C60.83609375 7.01359375 60.17609375 7.34359375 59.49609375 7.68359375 C60.13546875 8.75609375 60.77484375 9.82859375 61.43359375 10.93359375 C62.90210648 13.49181557 64.02463917 15.73700261 64.49609375 18.68359375 C63.83609375 18.68359375 63.17609375 18.68359375 62.49609375 18.68359375 C62.28984375 18.11640625 62.08359375 17.54921875 61.87109375 16.96484375 C60.00700045 13.8721435 57.4366998 12.16064457 54.49609375 10.18359375 C53.91158447 9.78922119 53.3270752 9.39484863 52.72485352 8.98852539 C43.6605478 3.02448214 36.42411827 1.00763347 25.49609375 1.68359375 Z M-62.50390625 14.68359375 C-62.11614258 17.97958497 -61.44723569 19.76768555 -59.56640625 22.55859375 C-57.27885751 26.02457669 -56.4634029 28.68569106 -55.50390625 32.68359375 C-56.16390625 32.68359375 -56.82390625 32.68359375 -57.50390625 32.68359375 C-57.73078125 32.16796875 -57.95765625 31.65234375 -58.19140625 31.12109375 C-60.00146155 27.75956248 -62.24387029 24.75448231 -64.50390625 21.68359375 C-65.18284326 23.54326573 -65.18284326 23.54326573 -65.50390625 25.68359375 C-64.57578125 27.04484375 -64.57578125 27.04484375 -63.62890625 28.43359375 C-59.95373004 34.05445148 -60.36756044 40.13899488 -60.50390625 46.68359375 C-56.16656815 42.94450918 -53.94021753 38.90598909 -53.1796875 33.2890625 C-52.87562127 26.46329978 -54.4787411 21.13087496 -59.015625 15.9609375 C-60.42997246 14.46649932 -60.42997246 14.46649932 -62.50390625 14.68359375 Z M-5.50390625 18.68359375 C-5.83390625 19.34359375 -6.16390625 20.00359375 -6.50390625 20.68359375 C-2.87390625 21.01359375 0.75609375 21.34359375 4.49609375 21.68359375 C4.16609375 20.69359375 3.83609375 19.70359375 3.49609375 18.68359375 C0.52609375 18.68359375 -2.44390625 18.68359375 -5.50390625 18.68359375 Z M-81.50390625 27.68359375 C-83.12884526 28.80468941 -83.12884526 28.80468941 -84.50390625 30.68359375 C-84.92066145 33.72570806 -84.92066145 33.72570806 -84.50390625 36.68359375 C-83.84390625 37.34359375 -83.18390625 38.00359375 -82.50390625 38.68359375 C-82.14133767 37.22732655 -81.78910832 35.7684819 -81.44140625 34.30859375 C-81.24417969 33.49648438 -81.04695313 32.684375 -80.84375 31.84765625 C-80.28281306 29.64198091 -80.28281306 29.64198091 -81.50390625 27.68359375 Z M-8.44140625 29.55859375 C-9.50681641 29.66300781 -10.57222656 29.76742187 -11.66992188 29.875 C-14.28267151 30.13276005 -16.89357237 30.4025838 -19.50390625 30.68359375 C-19.50390625 31.01359375 -19.50390625 31.34359375 -19.50390625 31.68359375 C-18.32634766 31.79574219 -18.32634766 31.79574219 -17.125 31.91015625 C-10.11948868 32.78691963 -5.00633016 33.95720994 -0.50390625 39.68359375 C0.46638265 42.59446044 0.66077222 44.5858306 0.68359375 47.62109375 C0.69777344 48.47574219 0.71195313 49.33039062 0.7265625 50.2109375 C0.49609375 52.68359375 0.49609375 52.68359375 -1.50390625 56.68359375 C5.75609375 56.68359375 13.01609375 56.68359375 20.49609375 56.68359375 C16.0597928 51.99895479 16.0597928 51.99895479 12.87109375 49.74609375 C10.10460005 47.34361238 8.93717354 45.02083115 7.49609375 41.68359375 C10.16276042 43.01692708 12.82942708 44.35026042 15.49609375 45.68359375 C14.07526288 37.7682948 14.07526288 37.7682948 10.49609375 30.68359375 C4.14947937 27.99449692 -1.71374885 28.83195664 -8.44140625 29.55859375 Z M-33.00390625 40.87109375 C-33.49890625 41.46921875 -33.99390625 42.06734375 -34.50390625 42.68359375 C-33.12905093 44.22526017 -33.12905093 44.22526017 -31.50390625 45.68359375 C-30.84390625 45.68359375 -30.18390625 45.68359375 -29.50390625 45.68359375 C-29.17390625 47.99359375 -28.84390625 50.30359375 -28.50390625 52.68359375 C-28.91511719 52.19632813 -29.32632813 51.7090625 -29.75 51.20703125 C-32.41425831 48.89286479 -34.53515541 49.2780633 -37.94140625 49.37890625 C-42.3014188 49.89732238 -46.37319516 51.2348266 -50.50390625 52.68359375 C-47.93902507 55.49274933 -46.0517697 56.60913875 -42.14379883 56.79711914 C-41.23782959 56.79188232 -40.33186035 56.78664551 -39.3984375 56.78125 C-37.92407227 56.77641602 -37.92407227 56.77641602 -36.41992188 56.77148438 C-35.39576172 56.76310547 -34.37160156 56.75472656 -33.31640625 56.74609375 C-32.28064453 56.74158203 -31.24488281 56.73707031 -30.17773438 56.73242188 C-27.61973359 56.72063385 -25.06184892 56.7041789 -22.50390625 56.68359375 C-22.82488281 56.10480469 -23.14585938 55.52601562 -23.4765625 54.9296875 C-25.02761186 51.53861 -25.18368504 48.29715471 -24.50390625 44.68359375 C-22.50390625 41.68359375 -22.50390625 41.68359375 -19.50390625 39.68359375 C-16.69659938 39.28403251 -14.36236631 39.44135137 -11.50390625 39.68359375 C-11.00890625 41.66359375 -11.00890625 41.66359375 -10.50390625 43.68359375 C-11.27476563 43.66039062 -12.045625 43.6371875 -12.83984375 43.61328125 C-14.34417969 43.58621094 -14.34417969 43.58621094 -15.87890625 43.55859375 C-16.87664062 43.53539062 -17.874375 43.5121875 -18.90234375 43.48828125 C-21.66652798 43.41142527 -21.66652798 43.41142527 -23.50390625 45.68359375 C-23.2593266 50.42896748 -23.2593266 50.42896748 -21.12890625 54.55859375 C-17.43901652 57.1131328 -13.83954683 56.98260345 -9.50390625 56.68359375 C-5.96520685 55.0322007 -4.69320472 53.96754146 -2.50390625 50.68359375 C-1.86222841 45.5666021 -1.86222841 45.5666021 -3.51953125 40.86328125 C-5.6707816 38.18069799 -7.21925633 36.77847706 -10.50390625 35.68359375 C-18.86911441 35.0391629 -26.41659725 35.10719838 -33.00390625 40.87109375 Z " fill="#000000" transform="translate(124.50390625,9.31640625)"/>
<path d="M0 0 C65.34 0 130.68 0 198 0 C198 3 198 6 198 9 C198.33 9.66 198.66 10.32 199 11 C199.38691286 15.64295428 199.47190735 18.0561853 197.375 22.25 C193.20119615 27.08282552 189.38224849 29.39216681 183 30 C183 30.66 183 31.32 183 32 C174.60333618 32.59503917 167.77245918 31.23635842 160 28 C159.67 27.67 159.34 27.34 159 27 C158.78085938 28.03898437 158.56171875 29.07796875 158.3359375 30.1484375 C155.0557038 44.90505882 149.04926329 56.12570008 136.125 64.8125 C121.4055777 73.33737584 101.80116279 74.58030889 85.375 70.9375 C76.29394852 68.1164633 67.80439145 63.36404549 60 58 C59.38511719 58.77085937 58.77023438 59.54171875 58.13671875 60.3359375 C57.32847656 61.33882812 56.52023438 62.34171875 55.6875 63.375 C54.88699219 64.37273437 54.08648437 65.37046875 53.26171875 66.3984375 C51 69 51 69 48 71 C45.36 71 42.72 71 40 71 C39.505 50.21 39.505 50.21 39 29 C34.05 30.485 34.05 30.485 29 32 C25.72265625 32.36328125 25.72265625 32.36328125 23.0625 32.3125 C21.71865234 32.30669922 21.71865234 32.30669922 20.34765625 32.30078125 C18 32 18 32 15 30 C13.71253805 29.40744429 12.42054159 28.82467604 11.125 28.25 C6.79652349 26.0697895 4.52859721 24.18798912 2 20 C1.19225638 15.11102549 1.55840155 11.33408239 4 7 C2.68 7 1.36 7 0 7 C0 4.69 0 2.38 0 0 Z M6.1875 9.6875 C4.48166086 13.00939726 4.54747434 15.31514818 5 19 C7.1796229 22.8361363 9.78938512 25.01216138 13.96484375 26.5546875 C22.24314578 28.36606261 30.81718065 24.93236629 38 21 C40.36574234 17.4513865 40.10865265 16.4235475 39.625 12.3125 C39.41875 10.559375 39.2125 8.80625 39 7 C34.71 7 30.42 7 26 7 C26.226875 8.4025 26.45375 9.805 26.6875 11.25 C27.00325953 14.24264633 27.10760719 15.72425657 26 18.5625 C22.98127279 20.73221018 20.60887606 20.39369557 17 20 C16.34 19.34 15.68 18.68 15 18 C16.11375 17.71125 17.2275 17.4225 18.375 17.125 C22.00291092 16.30758671 22.00291092 16.30758671 24 14 C23.9934389 10.96003468 23.9934389 10.96003468 23 8 C18.00129688 3.92698264 10.61397003 5.56630376 6.1875 9.6875 Z M41 6 C41 6.33 41 6.66 41 7 C43.31 7 45.62 7 48 7 C48 6.67 48 6.34 48 6 C45.69 6 43.38 6 41 6 Z M49 7 C49 8.65 49 10.3 49 12 C49.99 12.495 49.99 12.495 51 13 C53.09457636 12.25087337 53.09457636 12.25087337 55.4375 11.125 C62.21184788 8.31946199 69.2296184 6.59139935 76.25 9.4375 C76.88679688 9.71722656 77.52359375 9.99695313 78.1796875 10.28515625 C83.8040262 12.49385578 89.12082228 10.49581143 94.5546875 8.734375 C97.7043012 7.78848462 100.73593305 7.35478989 104 7 C104 6.67 104 6.34 104 6 C97.93514294 5.97509535 91.87031632 5.95704391 85.80541992 5.94506836 C83.74649537 5.94007058 81.68757431 5.93327013 79.62866211 5.92456055 C76.65217217 5.9122938 73.67572955 5.90672599 70.69921875 5.90234375 C69.7935466 5.89718246 68.88787445 5.89202118 67.95475769 5.88670349 C61.5883105 5.88615711 55.32992476 6.32863641 49 7 Z M112 6 C112 6.66 112 7.32 112 8 C110.68 8.33 109.36 8.66 108 9 C113.8804291 11.2948016 118.53699817 12.07476444 124.4375 9.5 C125.283125 9.005 126.12875 8.51 127 8 C123.65060119 5.97441119 121.13037449 5.78261013 117.25 5.875 C116.26515625 5.89304687 115.2803125 5.91109375 114.265625 5.9296875 C113.51796875 5.95289062 112.7703125 5.97609375 112 6 Z M157 6 C157.1509899 12.78822044 157.1509899 12.78822044 159.8125 18.8125 C167.06514734 23.789807 176.13048258 27.72700962 185 27 C189.41600752 25.58201594 192.30022748 23.95423526 195.0625 20.1875 C196.22943776 16.21991163 196.24469264 13.95372955 195 10 C191.80385958 7.03215533 189.76606132 6.09407771 185.4375 5.5625 C181.84644011 6.01954399 179.90129827 6.8899649 177 9 C177.18464366 13.34184202 177.18464366 13.34184202 179 17 C181.33297433 17.04092937 183.66705225 17.04241723 186 17 C185 18.5 185 18.5 183 20 C180.28153765 20.27345479 177.74322801 20.13491285 175 20 C174.80372609 18.41773035 174.61834462 16.83410729 174.4375 15.25 C174.33308594 14.36828125 174.22867188 13.4865625 174.12109375 12.578125 C174 10 174 10 175 6 C169.06 6 163.12 6 157 6 Z M104 7 C108 8 108 8 108 8 Z M87 13 C87.34933594 13.556875 87.69867188 14.11375 88.05859375 14.6875 C91.18310557 19.9274745 93 23.85327359 93 30 C91.88450749 33.58131805 90.82121522 36.08753865 88.3125 38.875 C83.32672809 41.30051066 79.39093621 41.38763796 74.1875 39.9375 C70.41156084 37.6423213 69.31583231 36.19421547 68 32 C68.23131346 28.06767118 68.7987197 26.30192045 71 23 C70.43152344 23.19335938 69.86304687 23.38671875 69.27734375 23.5859375 C64.54635062 25.18136423 59.81205575 26.66900586 55 28 C58.34120487 39.79042974 68.24649532 50.25343847 78.7734375 56.1953125 C85.8887058 60.01062379 92.84649409 63.35289636 101 64 C101.72058594 64.06832031 102.44117188 64.13664062 103.18359375 64.20703125 C113.45486428 64.70137047 123.18964577 61.67799804 131 55 C137.03107283 49.28635206 141.64333627 43.7812702 142.16796875 35.27734375 C142.18509705 32.84170003 142.13453011 30.43150726 142 28 C140.38007835 27.13624104 138.75388139 26.28424146 137.125 25.4375 C136.22007812 24.96183594 135.31515625 24.48617187 134.3828125 23.99609375 C133.20332031 23.50302734 133.20332031 23.50302734 132 23 C131.34 23.33 130.68 23.66 130 24 C130.99 25.485 130.99 25.485 132 27 C132.54628736 31.83854515 132.75936127 33.88468814 130 37.9375 C126.26118498 40.50793532 123.51044482 41.28297467 119 41 C114.70954282 39.78437047 112.55879952 38.61611229 109.5625 35.3125 C107.67419453 31.30929241 106.99664608 28.28243085 108 24 C109.7497669 20.17175276 111.78933875 16.57916583 114 13 C104.64103999 8.76198037 96.35896001 8.76198037 87 13 Z M52 20 C52.32041397 22.60280568 52.32041397 22.60280568 53 25 C56.12916575 26.40983991 56.12916575 26.40983991 59.58203125 24.48828125 C60.99741093 23.77326818 62.4074106 23.04752864 63.8125 22.3125 C64.51181641 21.95994141 65.21113281 21.60738281 65.93164062 21.24414062 C70.15523997 19.08295368 74.14855537 16.77521678 78 14 C78 13.67 78 13.34 78 13 C68.82486125 12.26794106 58.86638286 13.13361714 52 20 Z M122 13 C126.88701086 17.38145801 134.24827894 23 141 23 C140.16953471 19.67813884 139.25591031 17.32415306 137.125 14.625 C132.2580738 12.09419837 127.37962717 12.69112188 122 13 Z M76.8125 18.5 C75.91144531 18.9640625 75.01039062 19.428125 74.08203125 19.90625 C73.39496094 20.2671875 72.70789063 20.628125 72 21 C72 21.33 72 21.66 72 22 C74.31 22.33 76.62 22.66 79 23 C79 24.98 79 26.96 79 29 C76.53199953 27.84826645 74.95216435 26.95216435 73 25 C71.57337781 27.85324437 71.68966132 29.83454549 72 33 C73.80697029 36.01161715 75.07535078 37.60015169 78.3125 39 C82.21687139 39 84.6263263 37.9367386 88 36 C90.1998267 33.20022056 91.08243586 31.37473914 90.8671875 27.78515625 C89.98916436 22.98795709 88.63995249 19.4193493 85 16 C81.51038791 16 79.88519705 16.90379374 76.8125 18.5 Z M116 16 C111.50400304 20.88136813 110.63290259 24.03435913 110.7265625 30.515625 C110.87337325 33.19851355 110.87337325 33.19851355 112.5625 36.0625 C115.7891021 38.627235 117.89763122 39 122 39 C125.57387602 37.41161066 126.81089572 36.28365642 129 33 C129.02749478 30.93089407 129.02749478 30.93089407 128.625 28.8125 C128.41875 27.554375 128.2125 26.29625 128 25 C127.01 25.495 127.01 25.495 126 26 C126 26.66 126 27.32 126 28 C124.68 28 123.36 28 122 28 C122.1875 26.125 122.1875 26.125 123 24 C125.5625 22.75 125.5625 22.75 128 22 C125.52601863 19.34930567 123.42357749 17.28384156 120 16 C118.68 16 117.36 16 116 16 Z M32.6171875 24.77734375 C31.71226563 25.16019531 30.80734375 25.54304688 29.875 25.9375 C28.96492188 26.31777344 28.05484375 26.69804688 27.1171875 27.08984375 C26.41851563 27.39019531 25.71984375 27.69054687 25 28 C27.4667645 28.88336837 28.63859372 29.1312406 31.140625 28.22265625 C32.18476562 27.64837891 32.18476562 27.64837891 33.25 27.0625 C34.30960938 26.49208984 34.30960938 26.49208984 35.390625 25.91015625 C36.18726563 25.45962891 36.18726563 25.45962891 37 25 C34.98066862 23.6976002 34.98066862 23.6976002 32.6171875 24.77734375 Z " fill="#000000" transform="translate(1,99)"/>
<path d="M0 0 C2.875 1.3125 2.875 1.3125 5 3 C5.33 3.99 5.66 4.98 6 6 C5.26394531 5.89300781 4.52789063 5.78601563 3.76953125 5.67578125 C-2.25171209 4.86137073 -2.25171209 4.86137073 -8.0625 6.1875 C-11.21903033 9.14038321 -11.95778292 10.90235593 -12.125 15.25 C-12.08375 16.1575 -12.0425 17.065 -12 18 C-12.99 17.67 -13.98 17.34 -15 17 C-16.4608209 9.93936567 -16.4608209 9.93936567 -14.375 5.6875 C-9.97544098 0.70905164 -6.69291493 -0.71709803 0 0 Z " fill="#000000" transform="translate(26,26)"/>
</svg>
